<svg width="3533" height="940" xmlns="http://www.w3.org/2000/svg" xmlns:xlink="http://www.w3.org/1999/xlink" xml:space="preserve" overflow="hidden"><g transform="translate(-1549 -1177)"><g><path d="M4611 1273.72C4611 1261.73 4620.73 1252 4632.72 1252L5022.27 1252C5034.27 1252 5044 1261.73 5044 1273.72L5044 1610.28C5044 1622.27 5034.27 1632 5022.27 1632L4632.72 1632C4620.73 1632 4611 1622.27 4611 1610.28Z" fill="#E7E6E6" fill-rule="evenodd" fill-opacity="1"/><path d="M2831 1758.32C2831 1745.99 2840.99 1736 2853.32 1736L3229.68 1736C3242.01 1736 3252 1745.99 3252 1758.32L3252 1936.68C3252 1949.01 3242.01 1959 3229.68 1959L2853.32 1959C2840.99 1959 2831 1949.01 2831 1936.68Z" fill="#E7E6E6" fill-rule="evenodd" fill-opacity="1"/><path d="M1577 1409C1577 1399.06 1585.06 1391 1595 1391L1896 1391C1905.94 1391 1914 1399.06 1914 1409L1914 1481C1914 1490.94 1905.94 1499 1896 1499L1595 1499C1585.06 1499 1577 1490.94 1577 1481Z" fill="#E7E6E6" fill-rule="evenodd" fill-opacity="1"/><path d="M2825 1264.36C2825 1257.54 2830.54 1252 2837.36 1252L4545.64 1252C4552.46 1252 4558 1257.54 4558 1264.36L4558 1619.64C4558 1626.46 4552.46 1632 4545.64 1632L2837.36 1632C2830.54 1632 2825 1626.46 2825 1619.64Z" fill="#EDEDED" fill-rule="evenodd" fill-opacity="1"/><text fill="#000000" fill-opacity="1" font-family="Annai MN,Annai MN_MSFontService,sans-serif" font-style="normal" font-variant="normal" font-weight="400" font-stretch="normal" font-size="55" text-anchor="start" direction="ltr" writing-mode="lr-tb" unicode-bidi="normal" text-decoration="none" transform="matrix(1 0 0 1 1722.44 2051)">E</text><text fill="#000000" fill-opacity="1" font-family="Annai MN,Annai MN_MSFontService,sans-serif" font-style="normal" font-variant="normal" font-weight="400" font-stretch="normal" font-size="37" text-anchor="start" direction="ltr" writing-mode="lr-tb" unicode-bidi="normal" text-decoration="none" transform="matrix(1 0 0 1 1756.81 2064)">A</text><path d="M2853 1788.85 2920.08 1788.85 2920.08 1791.15 2853 1791.15ZM2915.5 1776.25 2943 1790 2915.5 1803.75Z" fill="#0E21A0" fill-rule="nonzero" fill-opacity="1"/><path d="M2943 1788.85 3005.8 1788.85 3005.8 1791.15 2943 1791.15ZM3001.21 1776.25 3028.71 1790 3001.21 1803.75Z" fill="#0E21A0" fill-rule="nonzero" fill-opacity="1"/><path d="M3029 1788.85 3104.66 1788.85 3104.66 1791.15 3029 1791.15ZM3100.07 1776.25 3127.57 1790 3100.07 1803.75Z" fill="#0E21A0" fill-rule="nonzero" fill-opacity="1"/><path d="M3128 1788.85 3203.66 1788.85 3203.66 1791.15 3128 1791.15ZM3199.07 1776.25 3226.57 1790 3199.07 1803.75Z" fill="#0E21A0" fill-rule="nonzero" fill-opacity="1"/><path d="M2853 1846.85 2920.08 1846.85 2920.08 1849.15 2853 1849.15ZM2915.5 1834.25 2943 1848 2915.5 1861.75Z" fill="#4D2DB7" fill-rule="nonzero" fill-opacity="1"/><path d="M2943 1846.85 3005.8 1846.85 3005.8 1849.15 2943 1849.15ZM3001.21 1834.25 3028.71 1848 3001.21 1861.75Z" fill="#4D2DB7" fill-rule="nonzero" fill-opacity="1"/><path d="M3029 1846.85 3104.66 1846.85 3104.66 1849.15 3029 1849.15ZM3100.07 1834.25 3127.57 1848 3100.07 1861.75Z" fill="#4D2DB7" fill-rule="nonzero" fill-opacity="1"/><path d="M3128 1846.85 3203.66 1846.85 3203.66 1849.15 3128 1849.15ZM3199.07 1834.25 3226.57 1848 3199.07 1861.75Z" fill="#4D2DB7" fill-rule="nonzero" fill-opacity="1"/><path d="M2853 1915.85 2920.08 1915.85 2920.08 1918.15 2853 1918.15ZM2915.5 1903.25 2943 1917 2915.5 1930.75Z" fill="#EC53B0" fill-rule="nonzero" fill-opacity="1"/><path d="M2943 1915.85 3005.8 1915.85 3005.8 1918.15 2943 1918.15ZM3001.21 1903.25 3028.71 1917 3001.21 1930.75Z" fill="#EC53B0" fill-rule="nonzero" fill-opacity="1"/><path d="M3029 1915.85 3104.66 1915.85 3104.66 1918.15 3029 1918.15ZM3100.07 1903.25 3127.57 1917 3100.07 1930.75Z" fill="#EC53B0" fill-rule="nonzero" fill-opacity="1"/><path d="M3128 1915.85 3203.66 1915.85 3203.66 1918.15 3128 1918.15ZM3199.07 1903.25 3226.57 1917 3199.07 1930.75Z" fill="#EC53B0" fill-rule="nonzero" fill-opacity="1"/><path d="M0.373671-1.08319 64.424 21.0124 63.6766 23.1788-0.373671 1.08319ZM64.2016 7.60259 85.7141 29.569 55.2335 33.5992Z" fill="#9D44C0" fill-rule="nonzero" fill-opacity="1" transform="matrix(1 0 0 -1 2943 1916.57)"/><path d="M0.329227-1.09752 76.9505 21.8869 76.2921 24.082-0.329227 1.09752ZM76.1819 8.49734 98.5716 29.569 68.2805 34.8377Z" fill="#9D44C0" fill-rule="nonzero" fill-opacity="1" transform="matrix(1 0 0 -1 3029 1887.57)"/><path d="M0.112405-1.14031 75.8779 6.32825 75.6531 8.60886-0.112405 1.14031ZM72.5531-6.66474 98.5716 9.71667 69.8554 20.7026Z" fill="#9D44C0" fill-rule="nonzero" fill-opacity="1" transform="matrix(1 0 0 -1 3128 1857.72)"/><rect x="3757.5" y="1847.5" width="65" height="65" stroke="#7F7F7F" stroke-width="4.58333" stroke-linecap="butt" stroke-linejoin="miter" stroke-miterlimit="8" stroke-opacity="1" fill="#9D44C0" fill-opacity="0.701961"/><path d="M2884.5 1334.75C2884.5 1328.54 2889.54 1323.5 2895.75 1323.5L3263.25 1323.5C3269.46 1323.5 3274.5 1328.54 3274.5 1334.75L3274.5 1547.25C3274.5 1553.46 3269.46 1558.5 3263.25 1558.5L2895.75 1558.5C2889.54 1558.5 2884.5 1553.46 2884.5 1547.25Z" stroke="#172C51" stroke-width="4.58333" stroke-linecap="butt" stroke-linejoin="miter" stroke-miterlimit="8" stroke-opacity="1" fill="#FFE5E5" fill-rule="evenodd" fill-opacity="1"/><text fill="#000000" fill-opacity="1" font-family="Annai MN,Annai MN_MSFontService,sans-serif" font-style="normal" font-variant="normal" font-weight="400" font-stretch="normal" font-size="55" text-anchor="start" direction="ltr" writing-mode="lr-tb" unicode-bidi="normal" text-decoration="none" transform="matrix(1 0 0 1 2982.36 1424)">Lateral</text><text fill="#000000" fill-opacity="1" font-family="Annai MN,Annai MN_MSFontService,sans-serif" font-style="normal" font-variant="normal" font-weight="400" font-stretch="normal" font-size="55" text-anchor="start" direction="ltr" writing-mode="lr-tb" unicode-bidi="normal" text-decoration="none" transform="matrix(1 0 0 1 2967.76 1490)">SelfAttn</text><rect x="3757.5" y="1714.5" width="65" height="65" stroke="#7F7F7F" stroke-width="4.58333" stroke-linecap="butt" stroke-linejoin="miter" stroke-miterlimit="8" stroke-opacity="1" fill="#0E21A0" fill-opacity="0.701961"/><rect x="3757.5" y="1781.5" width="65" height="65" stroke="#7F7F7F" stroke-width="4.58333" stroke-linecap="butt" stroke-linejoin="miter" stroke-miterlimit="8" stroke-opacity="1" fill="#4D2DB7" fill-opacity="0.701961"/><rect x="3757.5" y="1912.5" width="65" height="65" stroke="#7F7F7F" stroke-width="4.58333" stroke-linecap="butt" stroke-linejoin="miter" stroke-miterlimit="8" stroke-opacity="1" fill="#EC53B0" fill-opacity="0.701961"/><rect x="3854.5" y="2010.5" width="65" height="64.9999" stroke="#7F7F7F" stroke-width="4.58333" stroke-linecap="butt" stroke-linejoin="miter" stroke-miterlimit="8" stroke-opacity="1" fill="#E0AED0" fill-opacity="1"/><rect x="3920.5" y="2010.5" width="65" height="64.9999" stroke="#7F7F7F" stroke-width="4.58333" stroke-linecap="butt" stroke-linejoin="miter" stroke-miterlimit="8" stroke-opacity="1" fill="#E0AED0" fill-opacity="0.901961"/><rect x="3985.5" y="2010.5" width="65" height="64.9999" stroke="#7F7F7F" stroke-width="4.58333" stroke-linecap="butt" stroke-linejoin="miter" stroke-miterlimit="8" stroke-opacity="1" fill="#E0AED0" fill-opacity="0.8"/><rect x="4050.5" y="2010.5" width="65" height="64.9999" stroke="#7F7F7F" stroke-width="4.58333" stroke-linecap="butt" stroke-linejoin="miter" stroke-miterlimit="8" stroke-opacity="1" fill="#E0AED0" fill-opacity="0.701961"/><rect x="4115.5" y="2010.5" width="65" height="64.9999" stroke="#7F7F7F" stroke-width="4.58333" stroke-linecap="butt" stroke-linejoin="miter" stroke-miterlimit="8" stroke-opacity="1" fill="#E0AED0" fill-opacity="0.6"/><rect x="4180.5" y="2010.5" width="65.0005" height="64.9999" stroke="#7F7F7F" stroke-width="4.58333" stroke-linecap="butt" stroke-linejoin="miter" stroke-miterlimit="8" stroke-opacity="1" fill="#E0AED0" fill-opacity="0.501961"/><rect x="4244.5" y="2010.5" width="65" height="64.9999" stroke="#7F7F7F" stroke-width="4.58333" stroke-linecap="butt" stroke-linejoin="miter" stroke-miterlimit="8" stroke-opacity="1" fill="#E0AED0" fill-opacity="0.4"/><rect x="4309.5" y="2010.5" width="65" height="64.9999" stroke="#7F7F7F" stroke-width="4.58333" stroke-linecap="butt" stroke-linejoin="miter" stroke-miterlimit="8" stroke-opacity="1" fill="#E0AED0" fill-opacity="0.301961"/><rect x="4439.5" y="2010.5" width="65" height="64.9999" stroke="#7F7F7F" stroke-width="4.58333" stroke-linecap="butt" stroke-linejoin="miter" stroke-miterlimit="8" stroke-opacity="1" fill="#E0AED0" fill-opacity="0.2"/><text fill="#000000" fill-opacity="1" font-family="Annai MN,Annai MN_MSFontService,sans-serif" font-style="normal" font-variant="normal" font-weight="400" font-stretch="normal" font-size="55" text-anchor="start" direction="ltr" writing-mode="lr-tb" unicode-bidi="normal" text-decoration="none" transform="matrix(1 0 0 1 4386.63 2066)">…</text><path d="M3918.89 1716.42 3983.85 1716.42 3983.85 1781.38 3918.89 1781.38Z" fill="#FFE5E5" fill-rule="evenodd" fill-opacity="1"/><path d="M3918.89 1781.38 3983.85 1781.38 3983.85 1846.34 3918.89 1846.34Z" fill="#FFE5E5" fill-rule="evenodd" fill-opacity="1"/><path d="M3853.93 1846.34 3918.89 1846.34 3918.89 1911.3 3853.93 1911.3Z" fill="#DEEBF7" fill-rule="evenodd" fill-opacity="1"/><path d="M3918.89 1846.34 3983.85 1846.34 3983.85 1911.3 3918.89 1911.3Z" fill="#FFE5E5" fill-rule="evenodd" fill-opacity="1"/><path d="M3983.85 1846.34 4048.81 1846.34 4048.81 1911.3 3983.85 1911.3Z" fill="#DEEBF7" fill-rule="evenodd" fill-opacity="1"/><path d="M4048.81 1846.34 4113.77 1846.34 4113.77 1911.3 4048.81 1911.3Z" fill="#DEEBF7" fill-rule="evenodd" fill-opacity="1"/><path d="M4113.77 1846.34 4178.73 1846.34 4178.73 1911.3 4113.77 1911.3Z" fill="#DEEBF7" fill-rule="evenodd" fill-opacity="1"/><path d="M4178.73 1846.34 4243.69 1846.34 4243.69 1911.3 4178.73 1911.3Z" fill="#DEEBF7" fill-rule="evenodd" fill-opacity="1"/><path d="M4243.69 1846.34 4308.65 1846.34 4308.65 1911.3 4243.69 1911.3Z" fill="#DEEBF7" fill-rule="evenodd" fill-opacity="1"/><path d="M4308.65 1846.34 4373.61 1846.34 4373.61 1911.3 4308.65 1911.3Z" fill="#DEEBF7" fill-rule="evenodd" fill-opacity="1"/><path d="M4373.61 1846.34 4438.57 1846.34 4438.57 1911.3 4373.61 1911.3Z" fill="#DEEBF7" fill-rule="evenodd" fill-opacity="1"/><path d="M4438.57 1846.34 4503.53 1846.34 4503.53 1911.3 4438.57 1911.3Z" fill="#DEEBF7" fill-rule="evenodd" fill-opacity="1"/><path d="M3918.89 1911.3 3983.85 1911.3 3983.85 1976.26 3918.89 1976.26Z" fill="#FFE5E5" fill-rule="evenodd" fill-opacity="1"/><path d="M3918.89 1714.13 3918.89 1978.55" stroke="#000000" stroke-width="4.58333" stroke-linecap="butt" stroke-linejoin="round" stroke-miterlimit="10" stroke-opacity="1" fill="none" fill-rule="evenodd"/><path d="M3983.85 1714.13 3983.85 1978.55" stroke="#000000" stroke-width="4.58333" stroke-linecap="butt" stroke-linejoin="round" stroke-miterlimit="10" stroke-opacity="1" fill="none" fill-rule="evenodd"/><path d="M4048.81 1714.13 4048.81 1978.55" stroke="#000000" stroke-width="4.58333" stroke-linecap="butt" stroke-linejoin="round" stroke-miterlimit="10" stroke-opacity="1" fill="none" fill-rule="evenodd"/><path d="M4113.77 1714.13 4113.77 1978.55" stroke="#000000" stroke-width="4.58333" stroke-linecap="butt" stroke-linejoin="round" stroke-miterlimit="10" stroke-opacity="1" fill="none" fill-rule="evenodd"/><path d="M4178.73 1714.13 4178.73 1978.55" stroke="#000000" stroke-width="4.58333" stroke-linecap="butt" stroke-linejoin="round" stroke-miterlimit="10" stroke-opacity="1" fill="none" fill-rule="evenodd"/><path d="M4243.69 1714.13 4243.69 1978.55" stroke="#000000" stroke-width="4.58333" stroke-linecap="butt" stroke-linejoin="round" stroke-miterlimit="10" stroke-opacity="1" fill="none" fill-rule="evenodd"/><path d="M4308.65 1714.13 4308.65 1978.55" stroke="#000000" stroke-width="4.58333" stroke-linecap="butt" stroke-linejoin="round" stroke-miterlimit="10" stroke-opacity="1" fill="none" fill-rule="evenodd"/><path d="M4373.61 1714.13 4373.61 1978.55" stroke="#000000" stroke-width="4.58333" stroke-linecap="butt" stroke-linejoin="round" stroke-miterlimit="10" stroke-opacity="1" fill="none" fill-rule="evenodd"/><path d="M4438.57 1714.13 4438.57 1978.55" stroke="#000000" stroke-width="4.58333" stroke-linecap="butt" stroke-linejoin="round" stroke-miterlimit="10" stroke-opacity="1" fill="none" fill-rule="evenodd"/><path d="M3851.63 1781.38 4505.82 1781.38" stroke="#000000" stroke-width="4.58333" stroke-linecap="butt" stroke-linejoin="round" stroke-miterlimit="10" stroke-opacity="1" fill="none" fill-rule="evenodd"/><path d="M3851.63 1846.34 4505.82 1846.34" stroke="#000000" stroke-width="4.58333" stroke-linecap="butt" stroke-linejoin="round" stroke-miterlimit="10" stroke-opacity="1" fill="none" fill-rule="evenodd"/><path d="M3851.63 1911.3 4505.82 1911.3" stroke="#000000" stroke-width="4.58333" stroke-linecap="butt" stroke-linejoin="round" stroke-miterlimit="10" stroke-opacity="1" fill="none" fill-rule="evenodd"/><path d="M3853.93 1714.13 3853.93 1978.55" stroke="#000000" stroke-width="4.58333" stroke-linecap="butt" stroke-linejoin="round" stroke-miterlimit="10" stroke-opacity="1" fill="none" fill-rule="evenodd"/><path d="M4503.53 1714.13 4503.53 1978.55" stroke="#000000" stroke-width="4.58333" stroke-linecap="butt" stroke-linejoin="round" stroke-miterlimit="10" stroke-opacity="1" fill="none" fill-rule="evenodd"/><path d="M3851.63 1716.42 4505.82 1716.42" stroke="#000000" stroke-width="4.58333" stroke-linecap="butt" stroke-linejoin="round" stroke-miterlimit="10" stroke-opacity="1" fill="none" fill-rule="evenodd"/><path d="M3851.63 1976.26 4505.82 1976.26" stroke="#000000" stroke-width="4.58333" stroke-linecap="butt" stroke-linejoin="round" stroke-miterlimit="10" stroke-opacity="1" fill="none" fill-rule="evenodd"/><g><path d="M4050.09 1719.37C4049.98 1719.37 4049.88 1719.38 4049.8 1719.4 4049.72 1719.42 4049.65 1719.44 4049.6 1719.48 4049.55 1719.52 4049.51 1719.56 4049.48 1719.61 4049.46 1719.66 4049.44 1719.72 4049.44 1719.79 4049.44 1719.9 4049.48 1719.99 4049.55 1720.06 4049.63 1720.13 4049.73 1720.16 4049.86 1720.16 4049.96 1720.16 4050.06 1720.14 4050.15 1720.08 4050.24 1720.03 4050.34 1719.95 4050.44 1719.84L4050.44 1719.37ZM4049.97 1718.06C4050.13 1718.06 4050.26 1718.08 4050.37 1718.12 4050.48 1718.15 4050.57 1718.2 4050.64 1718.27 4050.71 1718.34 4050.76 1718.43 4050.79 1718.53 4050.82 1718.63 4050.84 1718.75 4050.84 1718.89L4050.84 1720.37C4050.84 1720.39 4050.83 1720.41 4050.82 1720.42 4050.8 1720.43 4050.79 1720.43 4050.76 1720.44 4050.74 1720.44 4050.71 1720.45 4050.66 1720.45 4050.62 1720.45 4050.59 1720.44 4050.56 1720.44 4050.54 1720.43 4050.52 1720.43 4050.51 1720.42 4050.5 1720.41 4050.49 1720.39 4050.49 1720.37L4050.49 1720.15C4050.39 1720.26 4050.29 1720.34 4050.17 1720.39 4050.05 1720.45 4049.93 1720.48 4049.79 1720.48 4049.68 1720.48 4049.57 1720.46 4049.48 1720.43 4049.39 1720.4 4049.31 1720.36 4049.24 1720.3 4049.17 1720.24 4049.12 1720.17 4049.09 1720.09 4049.05 1720.01 4049.03 1719.91 4049.03 1719.81 4049.03 1719.68 4049.06 1719.58 4049.11 1719.49 4049.16 1719.4 4049.23 1719.32 4049.32 1719.26 4049.42 1719.2 4049.53 1719.15 4049.67 1719.12 4049.81 1719.09 4049.96 1719.08 4050.13 1719.08L4050.44 1719.08 4050.44 1718.91C4050.44 1718.82 4050.43 1718.75 4050.41 1718.68 4050.39 1718.62 4050.36 1718.56 4050.32 1718.52 4050.28 1718.48 4050.23 1718.45 4050.17 1718.42 4050.1 1718.4 4050.03 1718.39 4049.93 1718.39 4049.83 1718.39 4049.74 1718.4 4049.67 1718.43 4049.59 1718.45 4049.52 1718.48 4049.46 1718.5 4049.4 1718.53 4049.35 1718.56 4049.31 1718.58 4049.27 1718.61 4049.24 1718.62 4049.22 1718.62 4049.21 1718.62 4049.2 1718.61 4049.19 1718.61 4049.18 1718.6 4049.17 1718.59 4049.16 1718.58 4049.15 1718.57 4049.15 1718.55 4049.14 1718.53 4049.14 1718.51 4049.14 1718.49 4049.14 1718.46 4049.14 1718.42 4049.14 1718.39 4049.15 1718.36 4049.15 1718.34 4049.17 1718.32 4049.19 1718.3 4049.21 1718.28 4049.25 1718.25 4049.3 1718.22 4049.36 1718.19 4049.42 1718.17 4049.49 1718.14 4049.56 1718.12 4049.64 1718.1 4049.72 1718.09 4049.8 1718.07 4049.88 1718.06 4049.97 1718.06Z" stroke="#7F7F7F" stroke-width="3" stroke-linecap="butt" stroke-linejoin="round" stroke-miterlimit="10" stroke-opacity="1" fill="#7F7F7F" fill-rule="evenodd" fill-opacity="1"/><text fill="#000000" fill-opacity="0" font-family="Arial,Arial_MSFontService,sans-serif" font-size="2.41455" direction="ltr" writing-mode="lr-tb" x="4049.03" y="1720.18">a</text></g><g><path d="M3855.21 1719.37C3855.1 1719.37 3855 1719.38 3854.92 1719.4 3854.84 1719.42 3854.77 1719.44 3854.72 1719.48 3854.67 1719.52 3854.63 1719.56 3854.6 1719.61 3854.58 1719.66 3854.56 1719.72 3854.56 1719.79 3854.56 1719.9 3854.6 1719.99 3854.67 1720.06 3854.74 1720.13 3854.85 1720.16 3854.98 1720.16 3855.08 1720.16 3855.18 1720.14 3855.27 1720.08 3855.36 1720.03 3855.45 1719.95 3855.55 1719.84L3855.55 1719.37ZM3855.09 1718.06C3855.25 1718.06 3855.38 1718.08 3855.49 1718.12 3855.6 1718.15 3855.69 1718.2 3855.76 1718.27 3855.83 1718.34 3855.88 1718.43 3855.91 1718.53 3855.94 1718.63 3855.95 1718.75 3855.95 1718.89L3855.95 1720.37C3855.95 1720.39 3855.95 1720.41 3855.93 1720.42 3855.92 1720.43 3855.9 1720.43 3855.88 1720.44 3855.86 1720.44 3855.82 1720.45 3855.78 1720.45 3855.74 1720.45 3855.7 1720.44 3855.68 1720.44 3855.65 1720.43 3855.64 1720.43 3855.62 1720.42 3855.61 1720.41 3855.61 1720.39 3855.61 1720.37L3855.61 1720.15C3855.51 1720.26 3855.4 1720.34 3855.29 1720.39 3855.17 1720.45 3855.04 1720.48 3854.91 1720.48 3854.8 1720.48 3854.69 1720.46 3854.6 1720.43 3854.5 1720.4 3854.42 1720.36 3854.36 1720.3 3854.29 1720.24 3854.24 1720.17 3854.21 1720.09 3854.17 1720.01 3854.15 1719.91 3854.15 1719.81 3854.15 1719.68 3854.18 1719.58 3854.23 1719.49 3854.28 1719.4 3854.35 1719.32 3854.44 1719.26 3854.54 1719.2 3854.65 1719.15 3854.79 1719.12 3854.93 1719.09 3855.08 1719.08 3855.25 1719.08L3855.55 1719.08 3855.55 1718.91C3855.55 1718.82 3855.54 1718.75 3855.53 1718.68 3855.51 1718.62 3855.48 1718.56 3855.44 1718.52 3855.4 1718.48 3855.35 1718.45 3855.29 1718.42 3855.22 1718.4 3855.14 1718.39 3855.05 1718.39 3854.95 1718.39 3854.86 1718.4 3854.78 1718.43 3854.7 1718.45 3854.64 1718.48 3854.58 1718.5 3854.52 1718.53 3854.47 1718.56 3854.43 1718.58 3854.39 1718.61 3854.36 1718.62 3854.34 1718.62 3854.33 1718.62 3854.31 1718.61 3854.3 1718.61 3854.29 1718.6 3854.29 1718.59 3854.28 1718.58 3854.27 1718.57 3854.27 1718.55 3854.26 1718.53 3854.26 1718.51 3854.26 1718.49 3854.26 1718.46 3854.26 1718.42 3854.26 1718.39 3854.27 1718.36 3854.27 1718.34 3854.29 1718.32 3854.31 1718.3 3854.33 1718.28 3854.37 1718.25 3854.42 1718.22 3854.47 1718.19 3854.54 1718.17 3854.61 1718.14 3854.68 1718.12 3854.75 1718.1 3854.84 1718.09 3854.92 1718.07 3855 1718.06 3855.09 1718.06Z" stroke="#7F7F7F" stroke-width="3" stroke-linecap="butt" stroke-linejoin="round" stroke-miterlimit="10" stroke-opacity="1" fill="#7F7F7F" fill-rule="evenodd" fill-opacity="1"/><text fill="#000000" fill-opacity="0" font-family="Arial,Arial_MSFontService,sans-serif" font-size="2.41455" direction="ltr" writing-mode="lr-tb" x="3854.15" y="1720.18">a</text></g><path d="M3341 1750.29C3341 1744.61 3345.61 1740 3351.29 1740L3631.71 1740C3637.39 1740 3642 1744.61 3642 1750.29L3642 1944.71C3642 1950.39 3637.39 1955 3631.71 1955L3351.29 1955C3345.61 1955 3341 1950.39 3341 1944.71Z" fill="#E7E6E6" fill-rule="evenodd" fill-opacity="1"/><text fill="#000000" fill-opacity="1" font-family="Annai MN,Annai MN_MSFontService,sans-serif" font-style="normal" font-variant="normal" font-weight="400" font-stretch="normal" font-size="55" text-anchor="start" direction="ltr" writing-mode="lr-tb" unicode-bidi="normal" text-decoration="none" transform="matrix(1 0 0 1 3387.45 1831)">Polyline</text><text fill="#000000" fill-opacity="1" font-family="Annai MN,Annai MN_MSFontService,sans-serif" font-style="normal" font-variant="normal" font-weight="400" font-stretch="normal" font-size="55" text-anchor="start" direction="ltr" writing-mode="lr-tb" unicode-bidi="normal" text-decoration="none" transform="matrix(1 0 0 1 3384.86 1897)">Encoder</text><rect x="1609.5" y="1907.5" width="70.0001" height="70.0001" stroke="#FFFFFF" stroke-width="4.58333" stroke-linecap="butt" stroke-linejoin="miter" stroke-miterlimit="8" stroke-opacity="1" fill="#B4C7E7" fill-opacity="1"/><rect x="1679.5" y="1907.5" width="69.9998" height="70.0001" stroke="#FFFFFF" stroke-width="4.58333" stroke-linecap="butt" stroke-linejoin="miter" stroke-miterlimit="8" stroke-opacity="1" fill="#B4C7E7" fill-opacity="1"/><rect x="1823.5" y="1907.5" width="69.9998" height="70.0001" stroke="#FFFFFF" stroke-width="4.58333" stroke-linecap="butt" stroke-linejoin="miter" stroke-miterlimit="8" stroke-opacity="1" fill="#B4C7E7" fill-opacity="1"/><text fill="#000000" fill-opacity="1" font-family="Annai MN,Annai MN_MSFontService,sans-serif" font-style="normal" font-variant="normal" font-weight="400" font-stretch="normal" font-size="83" text-anchor="start" direction="ltr" writing-mode="lr-tb" unicode-bidi="normal" text-decoration="none" transform="matrix(1 0 0 1 1761.6 1965)">…</text><rect x="2621.5" y="1907.5" width="71.0002" height="70.0001" stroke="#FFFFFF" stroke-width="4.58333" stroke-linecap="butt" stroke-linejoin="miter" stroke-miterlimit="8" stroke-opacity="1" fill="#C5E0B4" fill-opacity="1"/><path d="M1566.5 1613.05C1566.5 1599.49 1577.49 1588.5 1591.05 1588.5L2716.95 1588.5C2730.51 1588.5 2741.5 1599.49 2741.5 1613.05L2741.5 1777.95C2741.5 1791.51 2730.51 1802.5 2716.95 1802.5L1591.05 1802.5C1577.49 1802.5 1566.5 1791.51 1566.5 1777.95Z" stroke="#172C51" stroke-width="4.58333" stroke-linecap="butt" stroke-linejoin="miter" stroke-miterlimit="8" stroke-opacity="1" fill="#EDEDED" fill-rule="evenodd" fill-opacity="1"/><text fill="#000000" fill-opacity="1" font-family="Annai MN,Annai MN_MSFontService,sans-serif" font-style="normal" font-variant="normal" font-weight="400" font-stretch="normal" font-size="64" text-anchor="start" direction="ltr" writing-mode="lr-tb" unicode-bidi="normal" text-decoration="none" transform="matrix(1 0 0 1 1823.03 1714)">Transformer Encoder</text><path d="M1566.5 1900.7C1566.5 1886.78 1577.78 1875.5 1591.7 1875.5L2716.3 1875.5C2730.22 1875.5 2741.5 1886.78 2741.5 1900.7L2741.5 2068.3C2741.5 2082.22 2730.22 2093.5 2716.3 2093.5L1591.7 2093.5C1577.78 2093.5 1566.5 2082.22 1566.5 2068.3Z" stroke="#172C51" stroke-width="4.58333" stroke-linecap="butt" stroke-linejoin="miter" stroke-miterlimit="8" stroke-dasharray="18.3333 13.75" stroke-opacity="1" fill="none" fill-rule="evenodd"/><path d="M3365.5 1334.75C3365.5 1328.54 3370.54 1323.5 3376.75 1323.5L3744.25 1323.5C3750.46 1323.5 3755.5 1328.54 3755.5 1334.75L3755.5 1547.25C3755.5 1553.46 3750.46 1558.5 3744.25 1558.5L3376.75 1558.5C3370.54 1558.5 3365.5 1553.46 3365.5 1547.25Z" stroke="#172C51" stroke-width="4.58333" stroke-linecap="butt" stroke-linejoin="miter" stroke-miterlimit="8" stroke-opacity="1" fill="#DEEBF7" fill-rule="evenodd" fill-opacity="1"/><text fill="#000000" fill-opacity="1" font-family="Annai MN,Annai MN_MSFontService,sans-serif" font-style="normal" font-variant="normal" font-weight="400" font-stretch="normal" font-size="55" text-anchor="start" direction="ltr" writing-mode="lr-tb" unicode-bidi="normal" text-decoration="none" transform="matrix(1 0 0 1 3408.31 1424)">Logitudinal</text><text fill="#000000" fill-opacity="1" font-family="Annai MN,Annai MN_MSFontService,sans-serif" font-style="normal" font-variant="normal" font-weight="400" font-stretch="normal" font-size="55" text-anchor="start" direction="ltr" writing-mode="lr-tb" unicode-bidi="normal" text-decoration="none" transform="matrix(1 0 0 1 3448.71 1490)">SelfAttn</text><path d="M3953.5 1334.75C3953.5 1328.54 3958.54 1323.5 3964.75 1323.5L4485.25 1323.5C4491.46 1323.5 4496.5 1328.54 4496.5 1334.75L4496.5 1547.25C4496.5 1553.46 4491.46 1558.5 4485.25 1558.5L3964.75 1558.5C3958.54 1558.5 3953.5 1553.46 3953.5 1547.25Z" stroke="#172C51" stroke-width="4.58333" stroke-linecap="butt" stroke-linejoin="miter" stroke-miterlimit="8" stroke-opacity="1" fill="#E7E6E6" fill-rule="evenodd" fill-opacity="1"/><text fill="#000000" fill-opacity="1" font-family="Annai MN,Annai MN_MSFontService,sans-serif" font-style="normal" font-variant="normal" font-weight="400" font-stretch="normal" font-size="55" text-anchor="start" direction="ltr" writing-mode="lr-tb" unicode-bidi="normal" text-decoration="none" transform="matrix(1 0 0 1 4049.42 1424)">Query2Scene</text><text fill="#000000" fill-opacity="1" font-family="Annai MN,Annai MN_MSFontService,sans-serif" font-style="normal" font-variant="normal" font-weight="400" font-stretch="normal" font-size="55" text-anchor="start" direction="ltr" writing-mode="lr-tb" unicode-bidi="normal" text-decoration="none" transform="matrix(1 0 0 1 4089.25 1490)">CrossAttn</text><path d="M4483.67 1882.79 4465.33 1882.79 4465.33 1878.21 4483.67 1878.21ZM4451.58 1882.79 4433.25 1882.79 4433.25 1878.21 4451.58 1878.21ZM4419.5 1882.79 4401.17 1882.79 4401.17 1878.21 4419.5 1878.21ZM4387.42 1882.79 4369.08 1882.79 4369.08 1878.21 4387.42 1878.21ZM4355.33 1882.79 4337 1882.79 4337 1878.21 4355.33 1878.21ZM4323.25 1882.79 4304.92 1882.79 4304.92 1878.21 4323.25 1878.21ZM4291.17 1882.79 4272.83 1882.79 4272.83 1878.21 4291.17 1878.21ZM4259.08 1882.79 4240.75 1882.79 4240.75 1878.21 4259.08 1878.21ZM4227 1882.79 4208.67 1882.79 4208.67 1878.21 4227 1878.21ZM4194.92 1882.79 4176.58 1882.79 4176.58 1878.21 4194.92 1878.21ZM4162.83 1882.79 4144.5 1882.79 4144.5 1878.21 4162.83 1878.21ZM4130.75 1882.79 4112.42 1882.79 4112.42 1878.21 4130.75 1878.21ZM4098.67 1882.79 4080.34 1882.79 4080.34 1878.21 4098.67 1878.21ZM4066.59 1882.79 4048.25 1882.79 4048.25 1878.21 4066.59 1878.21ZM4034.5 1882.79 4016.17 1882.79 4016.17 1878.21 4034.5 1878.21ZM4002.42 1882.79 3984.09 1882.79 3984.09 1878.21 4002.42 1878.21ZM3970.34 1882.79 3952 1882.79 3952 1878.21 3970.34 1878.21ZM3938.25 1882.79 3919.92 1882.79 3919.92 1878.21 3938.25 1878.21ZM3906.17 1882.79 3887.84 1882.79 3887.84 1878.21 3906.17 1878.21ZM4479.08 1871.33 4506.58 1880.5 4479.08 1889.67ZM3879 1889.67 3851.5 1880.5 3879 1871.33Z" fill="#4472C4" fill-rule="nonzero" fill-opacity="1"/><path d="M4506.24 1877.65 4555.36 1877.65 4553.07 1879.95 4553.07 1659.81 4555.36 1662.1 3558.21 1662.1 3558.21 1581.42 3562.79 1581.42 3562.79 1659.81 3560.5 1657.52 4557.65 1657.52 4557.65 1882.24 4506.24 1882.24ZM3551.33 1586 3560.5 1558.5 3569.67 1586Z" fill="#000000" fill-rule="nonzero" fill-opacity="1"/><path d="M0-2.29167 28.3921-2.29167 28.3921 872.238 26.1004 869.946 133.105 869.946 133.105 874.53 23.8088 874.53 23.8088 0 26.1004 2.29167 0 2.29167ZM128.522 863.071 156.022 872.238 128.522 881.405Z" fill="#000000" fill-rule="nonzero" fill-opacity="1" transform="matrix(-1.83697e-16 -1 -1 1.83697e-16 3951.74 1714.52)"/><path d="M2.2917 22.9166 2.29172 41.2499-2.29161 41.2499-2.29164 22.9166ZM2.29174 54.9999 2.29177 73.3333-2.29157 73.3333-2.29159 55ZM2.29178 87.0833 2.29181 105.417-2.29152 105.417-2.29155 87.0833ZM2.29183 119.167 2.29185 137.5-2.29148 137.5-2.29151 119.167ZM2.29187 151.25 2.2919 169.583-2.29144 169.583-2.29146 151.25ZM2.29191 183.333 2.29194 201.667-2.29139 201.667-2.29142 183.333ZM2.29196 215.417 2.29198 233.75-2.29135 233.75-2.29138 215.417ZM-9.16663 27.5 0 0 9.1667 27.5ZM9.16699 239.665 0.000360892 267.165-9.16634 239.665Z" fill="#9D44C0" fill-rule="nonzero" fill-opacity="1" transform="matrix(1 0 0 -1 3950.5 1976.67)"/><text fill="#000000" fill-opacity="1" font-family="Cambria Math,Cambria Math_MSFontService,sans-serif" font-style="normal" font-variant="normal" font-weight="400" font-stretch="normal" font-size="64" text-anchor="start" direction="ltr" writing-mode="lr-tb" unicode-bidi="normal" text-decoration="none" transform="matrix(1 0 0 1 4369.36 1623)">×</text><text fill="#000000" fill-opacity="1" font-family="Annai MN,Annai MN_MSFontService,sans-serif" font-style="normal" font-variant="normal" font-weight="400" font-stretch="normal" font-size="64" text-anchor="start" direction="ltr" writing-mode="lr-tb" unicode-bidi="normal" text-decoration="none" transform="matrix(1 0 0 1 4435.24 1623)">L</text><text fill="#000000" fill-opacity="1" font-family="Annai MN,Annai MN_MSFontService,sans-serif" font-style="normal" font-variant="normal" font-weight="400" font-stretch="normal" font-size="43" text-anchor="start" direction="ltr" writing-mode="lr-tb" unicode-bidi="normal" text-decoration="none" transform="matrix(1 0 0 1 4475.35 1638)">dec</text><text fill="#000000" fill-opacity="1" font-family="Annai MN,Annai MN_MSFontService,sans-serif" font-style="normal" font-variant="normal" font-weight="400" font-stretch="normal" font-size="55" text-anchor="start" direction="ltr" writing-mode="lr-tb" unicode-bidi="normal" text-decoration="none" transform="matrix(1 0 0 1 2391.13 2051)">E</text><text fill="#000000" fill-opacity="1" font-family="Annai MN,Annai MN_MSFontService,sans-serif" font-style="normal" font-variant="normal" font-weight="400" font-stretch="normal" font-size="37" text-anchor="start" direction="ltr" writing-mode="lr-tb" unicode-bidi="normal" text-decoration="none" transform="matrix(1 0 0 1 2425.51 2064)">P</text><text fill="#000000" fill-opacity="1" font-family="Annai MN,Annai MN_MSFontService,sans-serif" font-style="normal" font-variant="normal" font-weight="400" font-stretch="normal" font-size="55" text-anchor="start" direction="ltr" writing-mode="lr-tb" unicode-bidi="normal" text-decoration="none" transform="matrix(1 0 0 1 2632.5 2051)">E</text><text fill="#000000" fill-opacity="1" font-family="Annai MN,Annai MN_MSFontService,sans-serif" font-style="normal" font-variant="normal" font-weight="400" font-stretch="normal" font-size="37" text-anchor="start" direction="ltr" writing-mode="lr-tb" unicode-bidi="normal" text-decoration="none" transform="matrix(1 0 0 1 2666.87 2064)">AV</text><rect x="1943.5" y="1907.5" width="70.9998" height="70.0001" stroke="#FFFFFF" stroke-width="4.58333" stroke-linecap="butt" stroke-linejoin="miter" stroke-miterlimit="8" stroke-opacity="1" fill="#F8CBAD" fill-opacity="1"/><rect x="2014.5" y="1907.5" width="70.0001" height="70.0001" stroke="#FFFFFF" stroke-width="4.58333" stroke-linecap="butt" stroke-linejoin="miter" stroke-miterlimit="8" stroke-opacity="1" fill="#F8CBAD" fill-opacity="1"/><rect x="2158.5" y="1907.5" width="70.0002" height="70.0001" stroke="#FFFFFF" stroke-width="4.58333" stroke-linecap="butt" stroke-linejoin="miter" stroke-miterlimit="8" stroke-opacity="1" fill="#F8CBAD" fill-opacity="1"/><text fill="#000000" fill-opacity="1" font-family="Annai MN,Annai MN_MSFontService,sans-serif" font-style="normal" font-variant="normal" font-weight="400" font-stretch="normal" font-size="83" text-anchor="start" direction="ltr" writing-mode="lr-tb" unicode-bidi="normal" text-decoration="none" transform="matrix(1 0 0 1 2096.34 1965)">…</text><text fill="#000000" fill-opacity="1" font-family="Annai MN,Annai MN_MSFontService,sans-serif" font-style="normal" font-variant="normal" font-weight="400" font-stretch="normal" font-size="55" text-anchor="start" direction="ltr" writing-mode="lr-tb" unicode-bidi="normal" text-decoration="none" transform="matrix(1 0 0 1 2066.29 2051)">E</text><text fill="#000000" fill-opacity="1" font-family="Annai MN,Annai MN_MSFontService,sans-serif" font-style="normal" font-variant="normal" font-weight="400" font-stretch="normal" font-size="37" text-anchor="start" direction="ltr" writing-mode="lr-tb" unicode-bidi="normal" text-decoration="none" transform="matrix(1 0 0 1 2100.67 2064)">O</text><rect x="2274.5" y="1908.5" width="69.9998" height="70.0001" stroke="#FFFFFF" stroke-width="4.58333" stroke-linecap="butt" stroke-linejoin="miter" stroke-miterlimit="8" stroke-opacity="1" fill="#BDD7EE" fill-opacity="1"/><rect x="2344.5" y="1908.5" width="70.0002" height="70.0001" stroke="#FFFFFF" stroke-width="4.58333" stroke-linecap="butt" stroke-linejoin="miter" stroke-miterlimit="8" stroke-opacity="1" fill="#BDD7EE" fill-opacity="1"/><rect x="2489.5" y="1908.5" width="70.0002" height="70.0001" stroke="#FFFFFF" stroke-width="4.58333" stroke-linecap="butt" stroke-linejoin="miter" stroke-miterlimit="8" stroke-opacity="1" fill="#BDD7EE" fill-opacity="1"/><text fill="#000000" fill-opacity="1" font-family="Annai MN,Annai MN_MSFontService,sans-serif" font-style="normal" font-variant="normal" font-weight="400" font-stretch="normal" font-size="83" text-anchor="start" direction="ltr" writing-mode="lr-tb" unicode-bidi="normal" text-decoration="none" transform="matrix(1 0 0 1 2427.08 1965)">…</text><rect x="1605.5" y="1408.5" width="69.9998" height="71.0001" stroke="#FFFFFF" stroke-width="4.58333" stroke-linecap="butt" stroke-linejoin="miter" stroke-miterlimit="8" stroke-opacity="1" fill="#8FAADC" fill-opacity="1"/><rect x="1675.5" y="1408.5" width="70.0001" height="71.0001" stroke="#FFFFFF" stroke-width="4.58333" stroke-linecap="butt" stroke-linejoin="miter" stroke-miterlimit="8" stroke-opacity="1" fill="#8FAADC" fill-opacity="1"/><rect x="1819.5" y="1408.5" width="71.0001" height="71.0001" stroke="#FFFFFF" stroke-width="4.58333" stroke-linecap="butt" stroke-linejoin="miter" stroke-miterlimit="8" stroke-opacity="1" fill="#8FAADC" fill-opacity="1"/><text fill="#000000" fill-opacity="1" font-family="Annai MN,Annai MN_MSFontService,sans-serif" font-style="normal" font-variant="normal" font-weight="400" font-stretch="normal" font-size="83" text-anchor="start" direction="ltr" writing-mode="lr-tb" unicode-bidi="normal" text-decoration="none" transform="matrix(1 0 0 1 1757.88 1466)">…</text><rect x="2618.5" y="1408.5" width="70.0002" height="71.0001" stroke="#FFFFFF" stroke-width="4.58333" stroke-linecap="butt" stroke-linejoin="miter" stroke-miterlimit="8" stroke-opacity="1" fill="#A9D18E" fill-opacity="1"/><rect x="1940.5" y="1408.5" width="70.0001" height="71.0001" stroke="#FFFFFF" stroke-width="4.58333" stroke-linecap="butt" stroke-linejoin="miter" stroke-miterlimit="8" stroke-opacity="1" fill="#F4B183" fill-opacity="1"/><rect x="2010.5" y="1408.5" width="69.9999" height="71.0001" stroke="#FFFFFF" stroke-width="4.58333" stroke-linecap="butt" stroke-linejoin="miter" stroke-miterlimit="8" stroke-opacity="1" fill="#F4B183" fill-opacity="1"/><rect x="2154.5" y="1408.5" width="69.9998" height="71.0001" stroke="#FFFFFF" stroke-width="4.58333" stroke-linecap="butt" stroke-linejoin="miter" stroke-miterlimit="8" stroke-opacity="1" fill="#F4B183" fill-opacity="1"/><text fill="#000000" fill-opacity="1" font-family="Annai MN,Annai MN_MSFontService,sans-serif" font-style="normal" font-variant="normal" font-weight="400" font-stretch="normal" font-size="83" text-anchor="start" direction="ltr" writing-mode="lr-tb" unicode-bidi="normal" text-decoration="none" transform="matrix(1 0 0 1 2092.62 1466)">…</text><rect x="2270.5" y="1409.5" width="71.0002" height="70.0001" stroke="#FFFFFF" stroke-width="4.58333" stroke-linecap="butt" stroke-linejoin="miter" stroke-miterlimit="8" stroke-opacity="1" fill="#9DC3E6" fill-opacity="1"/><rect x="2341.5" y="1409.5" width="69.9998" height="70.0001" stroke="#FFFFFF" stroke-width="4.58333" stroke-linecap="butt" stroke-linejoin="miter" stroke-miterlimit="8" stroke-opacity="1" fill="#9DC3E6" fill-opacity="1"/><rect x="2485.5" y="1409.5" width="69.9998" height="70.0001" stroke="#FFFFFF" stroke-width="4.58333" stroke-linecap="butt" stroke-linejoin="miter" stroke-miterlimit="8" stroke-opacity="1" fill="#9DC3E6" fill-opacity="1"/><text fill="#000000" fill-opacity="1" font-family="Annai MN,Annai MN_MSFontService,sans-serif" font-style="normal" font-variant="normal" font-weight="400" font-stretch="normal" font-size="83" text-anchor="start" direction="ltr" writing-mode="lr-tb" unicode-bidi="normal" text-decoration="none" transform="matrix(1 0 0 1 2423.36 1467)">…</text><path d="M1555.5 1378C1555.5 1362.26 1568.26 1349.5 1584 1349.5L2702 1349.5C2717.74 1349.5 2730.5 1362.26 2730.5 1378L2730.5 1492C2730.5 1507.74 2717.74 1520.5 2702 1520.5L1584 1520.5C1568.26 1520.5 1555.5 1507.74 1555.5 1492Z" stroke="#172C51" stroke-width="4.58333" stroke-linecap="butt" stroke-linejoin="miter" stroke-miterlimit="8" stroke-dasharray="18.3333 13.75" stroke-opacity="1" fill="none" fill-rule="evenodd"/><path d="M1.14583-6.36574e-06 1.14607 42.044-1.1456 42.044-1.14583 6.36574e-06ZM13.7502 37.4606 0.000360892 64.9606-13.7498 37.4607Z" fill="#000000" fill-rule="nonzero" fill-opacity="1" transform="matrix(1 0 0 -1 2001 1866.96)"/><path d="M1.14583-6.36574e-06 1.14607 42.044-1.1456 42.044-1.14583 6.36574e-06ZM13.7502 37.4606 0.000360892 64.9606-13.7498 37.4607Z" fill="#000000" fill-rule="nonzero" fill-opacity="1" transform="matrix(1 0 0 -1 1697 1866.96)"/><path d="M1.14583-6.36574e-06 1.14607 42.044-1.1456 42.044-1.14583 6.36574e-06ZM13.7502 37.4606 0.000360892 64.9606-13.7498 37.4607Z" fill="#000000" fill-rule="nonzero" fill-opacity="1" transform="matrix(1 0 0 -1 2306 1866.96)"/><path d="M1.14583-6.36574e-06 1.14607 42.044-1.1456 42.044-1.14583 6.36574e-06ZM13.7502 37.4606 0.000360892 64.9606-13.7498 37.4607Z" fill="#000000" fill-rule="nonzero" fill-opacity="1" transform="matrix(1 0 0 -1 2611 1866.96)"/><path d="M2140.21 1349.29 2140.21 1209.04 4227.01 1209.04 4227.01 1300.58 4222.42 1300.58 4222.42 1211.34 4224.71 1213.63 2142.5 1213.63 2144.79 1211.34 2144.79 1349.29ZM4233.88 1296 4224.71 1323.5 4215.55 1296Z" fill="#000000" fill-rule="nonzero" fill-opacity="1"/><text fill="#000000" fill-opacity="1" font-family="Annai MN,Annai MN_MSFontService,sans-serif" font-style="normal" font-variant="normal" font-weight="400" font-stretch="normal" font-size="50" text-anchor="start" direction="ltr" writing-mode="lr-tb" unicode-bidi="normal" text-decoration="none" transform="matrix(1 0 0 1 4255.82 1243)">Key</text><text fill="#000000" fill-opacity="1" font-family="Annai MN,Annai MN_MSFontService,sans-serif" font-style="normal" font-variant="normal" font-weight="400" font-stretch="normal" font-size="50" text-anchor="start" direction="ltr" writing-mode="lr-tb" unicode-bidi="normal" text-decoration="none" transform="matrix(1 0 0 1 4362.96 1243)">&amp;</text><text fill="#000000" fill-opacity="1" font-family="Annai MN,Annai MN_MSFontService,sans-serif" font-style="normal" font-variant="normal" font-weight="400" font-stretch="normal" font-size="50" text-anchor="start" direction="ltr" writing-mode="lr-tb" unicode-bidi="normal" text-decoration="none" transform="matrix(1 0 0 1 4415.09 1243)">Value</text><path d="M1556.5 1226.83C1556.5 1217.81 1563.81 1210.5 1572.83 1210.5L2039.17 1210.5C2048.19 1210.5 2055.5 1217.81 2055.5 1226.83L2055.5 1292.17C2055.5 1301.19 2048.19 1308.5 2039.17 1308.5L1572.83 1308.5C1563.81 1308.5 1556.5 1301.19 1556.5 1292.17Z" stroke="#172C51" stroke-width="4.58333" stroke-linecap="butt" stroke-linejoin="miter" stroke-miterlimit="8" stroke-opacity="1" fill="#DAE3F3" fill-rule="evenodd" fill-opacity="1"/><text fill="#000000" fill-opacity="1" font-family="Annai MN,Annai MN_MSFontService,sans-serif" font-style="normal" font-variant="normal" font-weight="400" font-stretch="normal" font-size="55" text-anchor="start" direction="ltr" writing-mode="lr-tb" unicode-bidi="normal" text-decoration="none" transform="matrix(1 0 0 1 1653.92 1275)">Predictions</text><path d="M1744.21 1390.92 1744.21 1365.96 1805.93 1365.96 1803.64 1368.25 1803.64 1331.42 1808.23 1331.42 1808.23 1370.54 1746.5 1370.54 1748.79 1368.25 1748.79 1390.92ZM1792.18 1336 1805.93 1308.5 1819.68 1336Z" fill="#000000" fill-rule="nonzero" fill-opacity="1"/><path d="M3274.5 1439.21 3342.76 1439.21 3342.76 1443.79 3274.5 1443.79ZM3338.18 1432.33 3365.68 1441.5 3338.18 1450.67Z" fill="#000000" fill-rule="nonzero" fill-opacity="1"/><path d="M3755.5 1439.21 3930.68 1439.21 3930.68 1443.79 3755.5 1443.79ZM3926.09 1432.33 3953.59 1441.5 3926.09 1450.67Z" fill="#000000" fill-rule="nonzero" fill-opacity="1"/><text fill="#000000" fill-opacity="1" font-family="Annai MN,Annai MN_MSFontService,sans-serif" font-style="normal" font-variant="normal" font-weight="400" font-stretch="normal" font-size="50" text-anchor="start" direction="ltr" writing-mode="lr-tb" unicode-bidi="normal" text-decoration="none" transform="matrix(1 0 0 1 3782.27 1417)">Query</text><path d="M9.29871e-06-2.29167 66.0253-2.2914 66.0253 2.29193-9.29871e-06 2.29167ZM61.442-9.16642 88.9419 0.000360892 61.4419 9.16692Z" fill="#000000" fill-rule="nonzero" fill-opacity="1" transform="matrix(1 0 0 -1 3252.5 1848.5)"/><path d="M3642.5 1846.21 3736.51 1846.21 3736.51 1850.79 3642.5 1850.79ZM3731.93 1839.33 3759.43 1848.5 3731.93 1857.67Z" fill="#000000" fill-rule="nonzero" fill-opacity="1"/><path d="M2836 1998.74C2836 1996.12 2838.12 1994 2840.74 1994L3632.26 1994C3634.88 1994 3637 1996.12 3637 1998.74L3637 2088.26C3637 2090.88 3634.88 2093 3632.26 2093L2840.74 2093C2838.12 2093 2836 2090.88 2836 2088.26Z" fill="#E7E6E6" fill-rule="evenodd" fill-opacity="1"/><text fill="#000000" fill-opacity="1" font-family="Annai MN,Annai MN_MSFontService,sans-serif" font-style="normal" font-variant="normal" font-weight="400" font-stretch="normal" font-size="55" text-anchor="start" direction="ltr" writing-mode="lr-tb" unicode-bidi="normal" text-decoration="none" transform="matrix(1 0 0 1 2961.09 2059)">Longitudinal</text><text fill="#000000" fill-opacity="1" font-family="Annai MN,Annai MN_MSFontService,sans-serif" font-style="normal" font-variant="normal" font-weight="400" font-stretch="normal" font-size="55" text-anchor="start" direction="ltr" writing-mode="lr-tb" unicode-bidi="normal" text-decoration="none" transform="matrix(1 0 0 1 3315.15 2059)">queries</text><path d="M0.00774936-2.29165 194.487-1.63401 194.472 2.9493-0.00774936 2.29165ZM189.927-8.52447 217.396 0.735138 189.865 9.80876Z" fill="#000000" fill-rule="nonzero" fill-opacity="1" transform="matrix(1 0 0 -1 3637.5 2044.24)"/><path d="M1.14583-6.36578e-06 1.14607 42.0436-1.1456 42.0436-1.14583 6.36578e-06ZM13.7502 37.4602 0.000360892 64.9603-13.7498 37.4603Z" fill="#000000" fill-rule="nonzero" fill-opacity="1" transform="matrix(1 0 0 -1 1995 1584.96)"/><path d="M1.14583-6.36578e-06 1.14607 42.0436-1.1456 42.0436-1.14583 6.36578e-06ZM13.7502 37.4602 0.000360892 64.9603-13.7498 37.4603Z" fill="#000000" fill-rule="nonzero" fill-opacity="1" transform="matrix(1 0 0 -1 1691 1584.96)"/><path d="M1.14583-6.36578e-06 1.14607 42.0436-1.1456 42.0436-1.14583 6.36578e-06ZM13.7502 37.4602 0.000360892 64.9603-13.7498 37.4603Z" fill="#000000" fill-rule="nonzero" fill-opacity="1" transform="matrix(1 0 0 -1 2300 1584.96)"/><path d="M1.14583-6.36578e-06 1.14607 42.0436-1.1456 42.0436-1.14583 6.36578e-06ZM13.7502 37.4602 0.000360892 64.9603-13.7498 37.4603Z" fill="#000000" fill-rule="nonzero" fill-opacity="1" transform="matrix(1 0 0 -1 2605 1584.96)"/><g><g><g><path d="M0 272.729 366 272.729 366 0 0 0Z" fill="#FFFFFF" fill-rule="nonzero" fill-opacity="1" transform="matrix(1 0 0 1.00014 4645 1696.12)"/><g><path d="M133.307 136.364 126.104 139.245 126.104 136.436 124.665 136.436 124.665 136.293 126.104 136.293 126.104 133.484Z" stroke="#492EB0" stroke-width="1.02486" stroke-linecap="butt" stroke-linejoin="miter" stroke-miterlimit="4" stroke-opacity="1" fill="#492EB0" fill-rule="nonzero" fill-opacity="1" transform="matrix(1 0 0 1.00014 4645 1696.12)"/></g><g><path d="M241.335 136.364 234.133 139.245 234.133 136.436 232.693 136.436 232.693 136.293 234.133 136.293 234.133 133.484Z" stroke="#492EB0" stroke-width="1.02486" stroke-linecap="butt" stroke-linejoin="miter" stroke-miterlimit="4" stroke-opacity="1" fill="#492EB0" fill-rule="nonzero" fill-opacity="1" transform="matrix(1 0 0 1.00014 4645 1696.12)"/></g><g><path d="M349.363 136.364 342.161 139.245 342.161 136.436 340.721 136.436 340.721 136.293 342.161 136.293 342.161 133.484Z" stroke="#492EB0" stroke-width="1.02486" stroke-linecap="butt" stroke-linejoin="miter" stroke-miterlimit="4" stroke-opacity="1" fill="#492EB0" fill-rule="nonzero" fill-opacity="1" transform="matrix(1 0 0 1.00014 4645 1696.12)"/></g><g><path d="M133.307 64.3456 126.104 67.2263 126.104 64.4176 124.665 64.4176 124.665 64.2736 126.104 64.2736 126.104 61.4648Z" stroke="#13219A" stroke-width="1.02486" stroke-linecap="butt" stroke-linejoin="miter" stroke-miterlimit="4" stroke-opacity="1" fill="#13219A" fill-rule="nonzero" fill-opacity="1" transform="matrix(1 0 0 1.00014 4645 1696.12)"/></g><g><path d="M241.335 64.3456 234.133 67.2263 234.133 64.4176 232.693 64.4176 232.693 64.2736 234.133 64.2736 234.133 61.4648Z" stroke="#13219A" stroke-width="1.02486" stroke-linecap="butt" stroke-linejoin="miter" stroke-miterlimit="4" stroke-opacity="1" fill="#13219A" fill-rule="nonzero" fill-opacity="1" transform="matrix(1 0 0 1.00014 4645 1696.12)"/></g><g><path d="M349.363 64.3456 342.161 67.2263 342.161 64.4176 340.721 64.4176 340.721 64.2736 342.161 64.2736 342.161 61.4648Z" stroke="#13219A" stroke-width="1.02486" stroke-linecap="butt" stroke-linejoin="miter" stroke-miterlimit="4" stroke-opacity="1" fill="#13219A" fill-rule="nonzero" fill-opacity="1" transform="matrix(1 0 0 1.00014 4645 1696.12)"/></g><g><path d="M133.307 208.384 126.104 211.264 126.104 208.455 124.665 208.455 124.665 208.311 126.104 208.311 126.104 205.503Z" stroke="#DB5EAD" stroke-width="1.02486" stroke-linecap="butt" stroke-linejoin="miter" stroke-miterlimit="4" stroke-opacity="1" fill="#DB5EAD" fill-rule="nonzero" fill-opacity="1" transform="matrix(1 0 0 1.00014 4645 1696.12)"/></g><g><path d="M241.335 208.384 234.133 211.264 234.133 208.455 232.693 208.455 232.693 208.311 234.133 208.311 234.133 205.503Z" stroke="#DB5EAD" stroke-width="1.02486" stroke-linecap="butt" stroke-linejoin="miter" stroke-miterlimit="4" stroke-opacity="1" fill="#DB5EAD" fill-rule="nonzero" fill-opacity="1" transform="matrix(1 0 0 1.00014 4645 1696.12)"/></g><g><path d="M349.363 208.384 342.161 211.264 342.161 208.455 340.721 208.455 340.721 208.311 342.161 208.311 342.161 205.503Z" stroke="#DB5EAD" stroke-width="1.02486" stroke-linecap="butt" stroke-linejoin="miter" stroke-miterlimit="4" stroke-opacity="1" fill="#DB5EAD" fill-rule="nonzero" fill-opacity="1" transform="matrix(1 0 0 1.00014 4645 1696.12)"/></g><g><path d="M16.6363 136.364 25.2714 136.364 33.2032 136.364 40.4786 136.364 47.1443 136.364 53.2475 136.364 58.8349 136.364 63.9534 136.364 68.65 136.364 72.9714 136.364 76.9647 136.364 80.6765 136.364 84.154 136.364 87.4439 136.364 90.5932 136.364 93.6487 136.364 96.6573 136.364 99.6659 136.364 102.721 136.364 105.871 136.364 109.16 136.364 112.638 136.364 116.35 136.364 120.343 136.364 124.665 136.364" stroke="#492EB0" stroke-width="2.04973" stroke-linecap="square" stroke-linejoin="round" stroke-miterlimit="4" stroke-opacity="1" fill="none" fill-rule="nonzero" transform="matrix(1 0 0 1.00014 4645 1696.12)"/></g><g><path d="M16.6363 136.364 33.9065 136.364 49.77 136.364 64.3207 136.364 77.6523 136.364 89.8586 136.364 101.033 136.364 111.271 136.364 120.663 136.364 129.306 136.364 137.293 136.364 144.717 136.364 151.672 136.364 158.251 136.364 164.55 136.364 170.662 136.364 176.679 136.364 182.695 136.364 188.807 136.364 195.105 136.364 201.685 136.364 208.64 136.364 216.063 136.364 224.05 136.364 232.693 136.364" stroke="#492EB0" stroke-width="2.04973" stroke-linecap="square" stroke-linejoin="round" stroke-miterlimit="4" stroke-opacity="1" fill="none" fill-rule="nonzero" transform="matrix(1 0 0 1.00014 4645 1696.12)"/></g><g><path d="M16.6363 136.364 42.5415 136.364 66.3368 136.364 88.1629 136.364 108.16 136.364 126.469 136.364 143.232 136.364 158.588 136.364 172.677 136.364 185.642 136.364 197.622 136.364 208.757 136.364 219.189 136.364 229.059 136.364 238.507 136.364 247.673 136.364 256.699 136.364 265.725 136.364 274.891 136.364 284.34 136.364 294.209 136.364 304.641 136.364 315.777 136.364 327.757 136.364 340.721 136.364" stroke="#492EB0" stroke-width="2.04973" stroke-linecap="square" stroke-linejoin="round" stroke-miterlimit="4" stroke-opacity="1" fill="none" fill-rule="nonzero" transform="matrix(1 0 0 1.00014 4645 1696.12)"/></g><g><path d="M16.6363 136.364 25.2714 136 33.2032 134.947 40.4786 133.27 47.1443 131.03 53.2475 128.29 58.8349 125.111 63.9534 121.558 68.65 117.692 72.9714 113.578 76.9647 109.274 80.6765 104.846 84.154 100.355 87.4439 95.8642 90.5932 91.436 93.6487 87.1328 96.6573 83.0171 99.6659 79.1516 102.721 75.5985 105.871 72.4206 109.16 69.6804 112.638 67.4401 116.35 65.7626 120.343 64.7103 124.665 64.3456" stroke="#13219A" stroke-width="2.04973" stroke-linecap="square" stroke-linejoin="round" stroke-miterlimit="4" stroke-opacity="1" fill="none" fill-rule="nonzero" transform="matrix(1 0 0 1.00014 4645 1696.12)"/></g><g><path d="M16.6363 136.364 33.9065 136 49.77 134.947 64.3207 133.27 77.6523 131.03 89.8586 128.29 101.033 125.111 111.271 121.558 120.663 117.692 129.306 113.578 137.293 109.274 144.717 104.846 151.672 100.355 158.251 95.8642 164.55 91.436 170.662 87.1328 176.679 83.0171 182.695 79.1516 188.807 75.5985 195.105 72.4206 201.685 69.6804 208.64 67.4401 216.063 65.7626 224.05 64.7103 232.693 64.3456" stroke="#13219A" stroke-width="2.04973" stroke-linecap="square" stroke-linejoin="round" stroke-miterlimit="4" stroke-opacity="1" fill="none" fill-rule="nonzero" transform="matrix(1 0 0 1.00014 4645 1696.12)"/></g><g><path d="M16.6363 136.364 42.5415 136 66.3368 134.947 88.1629 133.27 108.16 131.03 126.469 128.29 143.232 125.111 158.588 121.558 172.677 117.692 185.642 113.578 197.622 109.274 208.757 104.846 219.189 100.355 229.059 95.8642 238.507 91.436 247.673 87.1328 256.699 83.0171 265.725 79.1516 274.891 75.5985 284.34 72.4206 294.209 69.6804 304.641 67.4401 315.777 65.7626 327.757 64.7103 340.721 64.3456" stroke="#13219A" stroke-width="2.04973" stroke-linecap="square" stroke-linejoin="round" stroke-miterlimit="4" stroke-opacity="1" fill="none" fill-rule="nonzero" transform="matrix(1 0 0 1.00014 4645 1696.12)"/></g><g><path d="M16.6363 136.364 25.2714 136.729 33.2032 137.782 40.4786 139.458 47.1443 141.699 53.2475 144.439 58.8349 147.617 63.9534 151.171 68.65 155.036 72.9714 159.151 76.9647 163.455 80.6765 167.883 84.154 172.374 87.4439 176.865 90.5932 181.292 93.6487 185.596 96.6573 189.712 99.6659 193.577 102.721 197.131 105.871 200.308 109.16 203.048 112.638 205.289 116.35 206.966 120.343 208.019 124.665 208.384" stroke="#DB5EAD" stroke-width="2.04973" stroke-linecap="square" stroke-linejoin="round" stroke-miterlimit="4" stroke-opacity="1" fill="none" fill-rule="nonzero" transform="matrix(1 0 0 1.00014 4645 1696.12)"/></g><g><path d="M16.6363 136.364 33.9065 136.729 49.77 137.782 64.3207 139.458 77.6523 141.699 89.8586 144.439 101.033 147.617 111.271 151.171 120.663 155.036 129.306 159.151 137.293 163.455 144.717 167.883 151.672 172.374 158.251 176.865 164.55 181.292 170.662 185.596 176.679 189.712 182.695 193.577 188.807 197.131 195.105 200.308 201.685 203.048 208.64 205.289 216.063 206.966 224.05 208.019 232.693 208.384" stroke="#DB5EAD" stroke-width="2.04973" stroke-linecap="square" stroke-linejoin="round" stroke-miterlimit="4" stroke-opacity="1" fill="none" fill-rule="nonzero" transform="matrix(1 0 0 1.00014 4645 1696.12)"/></g><g><path d="M16.6363 136.364 42.5415 136.729 66.3368 137.782 88.1629 139.458 108.16 141.699 126.469 144.439 143.232 147.617 158.588 151.171 172.677 155.036 185.642 159.151 197.622 163.455 208.757 167.883 219.189 172.374 229.059 176.865 238.507 181.292 247.673 185.596 256.699 189.712 265.725 193.577 274.891 197.131 284.34 200.308 294.209 203.048 304.641 205.289 315.777 206.966 327.757 208.019 340.721 208.384" stroke="#DB5EAD" stroke-width="2.04973" stroke-linecap="square" stroke-linejoin="round" stroke-miterlimit="4" stroke-opacity="1" fill="none" fill-rule="nonzero" transform="matrix(1 0 0 1.00014 4645 1696.12)"/></g></g></g></g><path d="M4630.5 1723.14C4630.5 1707.88 4642.88 1695.5 4658.14 1695.5L5010.86 1695.5C5026.12 1695.5 5038.5 1707.88 5038.5 1723.14L5038.5 1931.86C5038.5 1947.12 5026.12 1959.5 5010.86 1959.5L4658.14 1959.5C4642.88 1959.5 4630.5 1947.12 4630.5 1931.86Z" stroke="#172C51" stroke-width="4.58333" stroke-linecap="butt" stroke-linejoin="miter" stroke-miterlimit="8" stroke-dasharray="18.3333 13.75" stroke-opacity="1" fill="none" fill-rule="evenodd"/><path d="M4633.5 1313.1C4633.5 1310.01 4636.01 1307.5 4639.1 1307.5L5016.9 1307.5C5019.99 1307.5 5022.5 1310.01 5022.5 1313.1L5022.5 1418.9C5022.5 1421.99 5019.99 1424.5 5016.9 1424.5L4639.1 1424.5C4636.01 1424.5 4633.5 1421.99 4633.5 1418.9Z" stroke="#172C51" stroke-width="4.58333" stroke-linecap="butt" stroke-linejoin="miter" stroke-miterlimit="8" stroke-opacity="1" fill="#DEEBF7" fill-rule="evenodd" fill-opacity="1"/><text fill="#000000" fill-opacity="1" font-family="Annai MN,Annai MN_MSFontService,sans-serif" font-style="normal" font-variant="normal" font-weight="400" font-stretch="normal" font-size="50" text-anchor="start" direction="ltr" writing-mode="lr-tb" unicode-bidi="normal" text-decoration="none" transform="matrix(1 0 0 1 4710.33 1380)">Traj</text><text fill="#000000" fill-opacity="1" font-family="Annai MN,Annai MN_MSFontService,sans-serif" font-style="normal" font-variant="normal" font-weight="400" font-stretch="normal" font-size="50" text-anchor="start" direction="ltr" writing-mode="lr-tb" unicode-bidi="normal" text-decoration="none" transform="matrix(1 0 0 1 4809.44 1380)">.</text><text fill="#000000" fill-opacity="1" font-family="Annai MN,Annai MN_MSFontService,sans-serif" font-style="normal" font-variant="normal" font-weight="400" font-stretch="normal" font-size="50" text-anchor="start" direction="ltr" writing-mode="lr-tb" unicode-bidi="normal" text-decoration="none" transform="matrix(1 0 0 1 4838.09 1380)">MLP</text><path d="M4632.5 1470.1C4632.5 1467.01 4635.01 1464.5 4638.1 1464.5L5015.9 1464.5C5018.99 1464.5 5021.5 1467.01 5021.5 1470.1L5021.5 1575.9C5021.5 1578.99 5018.99 1581.5 5015.9 1581.5L4638.1 1581.5C4635.01 1581.5 4632.5 1578.99 4632.5 1575.9Z" stroke="#172C51" stroke-width="4.58333" stroke-linecap="butt" stroke-linejoin="miter" stroke-miterlimit="8" stroke-opacity="1" fill="#DEEBF7" fill-rule="evenodd" fill-opacity="1"/><text fill="#000000" fill-opacity="1" font-family="Annai MN,Annai MN_MSFontService,sans-serif" font-style="normal" font-variant="normal" font-weight="400" font-stretch="normal" font-size="50" text-anchor="start" direction="ltr" writing-mode="lr-tb" unicode-bidi="normal" text-decoration="none" transform="matrix(1 0 0 1 4697.82 1538)">Score</text><text fill="#000000" fill-opacity="1" font-family="Annai MN,Annai MN_MSFontService,sans-serif" font-style="normal" font-variant="normal" font-weight="400" font-stretch="normal" font-size="50" text-anchor="start" direction="ltr" writing-mode="lr-tb" unicode-bidi="normal" text-decoration="none" transform="matrix(1 0 0 1 4848.5 1538)">MLP</text><path d="M4558.5 1440.21 4588.66 1440.21 4588.66 1444.79 4558.5 1444.79ZM4584.08 1433.33 4611.58 1442.5 4584.08 1451.67Z" fill="#000000" fill-rule="nonzero" fill-opacity="1"/><text fill="#000000" fill-opacity="1" font-family="Annai MN,Annai MN_MSFontService,sans-serif" font-style="normal" font-variant="normal" font-weight="400" font-stretch="normal" font-size="48" text-anchor="start" direction="ltr" writing-mode="lr-tb" unicode-bidi="normal" text-decoration="none" transform="matrix(1 0 0 1 4606.21 2065)">Trajectory &amp; Score</text><path d="M4829.79 1632.47 4830.41 1673.21 4825.82 1673.28 4825.21 1632.53ZM4837.21 1668.52 4828.46 1696.16 4818.88 1668.8Z" fill="#000000" fill-rule="nonzero" fill-opacity="1"/><text fill="#000000" fill-opacity="1" font-family="Cambria Math,Cambria Math_MSFontService,sans-serif" font-style="normal" font-variant="normal" font-weight="400" font-stretch="normal" font-size="64" text-anchor="start" direction="ltr" writing-mode="lr-tb" unicode-bidi="normal" text-decoration="none" transform="matrix(1 0 0 1 2554.68 1778)">×</text><text fill="#000000" fill-opacity="1" font-family="Annai MN,Annai MN_MSFontService,sans-serif" font-style="normal" font-variant="normal" font-weight="400" font-stretch="normal" font-size="64" text-anchor="start" direction="ltr" writing-mode="lr-tb" unicode-bidi="normal" text-decoration="none" transform="matrix(1 0 0 1 2620.56 1778)">L</text><text fill="#000000" fill-opacity="1" font-family="Annai MN,Annai MN_MSFontService,sans-serif" font-style="normal" font-variant="normal" font-weight="400" font-stretch="normal" font-size="43" text-anchor="start" direction="ltr" writing-mode="lr-tb" unicode-bidi="normal" text-decoration="none" transform="matrix(1 0 0 1 2660.67 1793)">enc</text><text fill="#000000" fill-opacity="1" font-family="Annai MN,Annai MN_MSFontService,sans-serif" font-style="normal" font-variant="normal" font-weight="400" font-stretch="normal" font-size="55" text-anchor="start" direction="ltr" writing-mode="lr-tb" unicode-bidi="normal" text-decoration="none" transform="matrix(1 0 0 1 3656.23 1824)">Q</text><text fill="#000000" fill-opacity="1" font-family="Annai MN,Annai MN_MSFontService,sans-serif" font-style="normal" font-variant="normal" font-weight="400" font-stretch="normal" font-size="37" text-anchor="start" direction="ltr" writing-mode="lr-tb" unicode-bidi="normal" text-decoration="none" transform="matrix(1 0 0 1 3696.33 1837)">lat</text><text fill="#000000" fill-opacity="1" font-family="Annai MN,Annai MN_MSFontService,sans-serif" font-style="normal" font-variant="normal" font-weight="400" font-stretch="normal" font-size="55" text-anchor="start" direction="ltr" writing-mode="lr-tb" unicode-bidi="normal" text-decoration="none" transform="matrix(1 0 0 1 3654.21 2017)">Q</text><text fill="#000000" fill-opacity="1" font-family="Annai MN,Annai MN_MSFontService,sans-serif" font-style="normal" font-variant="normal" font-weight="400" font-stretch="normal" font-size="37" text-anchor="start" direction="ltr" writing-mode="lr-tb" unicode-bidi="normal" text-decoration="none" transform="matrix(1 0 0 1 3694.31 2030)">lon</text><text fill="#000000" fill-opacity="1" font-family="Annai MN,Annai MN_MSFontService,sans-serif" font-style="normal" font-variant="normal" font-weight="400" font-stretch="normal" font-size="48" text-anchor="start" direction="ltr" writing-mode="lr-tb" unicode-bidi="normal" text-decoration="none" transform="matrix(1 0 0 1 2846.72 1725)">Ref. line</text><text fill="#000000" fill-opacity="1" font-family="Annai MN,Annai MN_MSFontService,sans-serif" font-style="normal" font-variant="normal" font-weight="400" font-stretch="normal" font-size="48" text-anchor="start" direction="ltr" writing-mode="lr-tb" unicode-bidi="normal" text-decoration="none" transform="matrix(1 0 0 1 3035.21 1725)">s</text></g></g></svg>